<svg version="1.0" xmlns="http://www.w3.org/2000/svg"
 width="512.000000pt" height="512.000000pt" viewBox="0 0 512.000000 512.000000" 
 preserveAspectRatio="xMidYMid meet">
<metadata>
Created by potrace 1.16, written by Peter Selinger 2001-2019
</metadata>
<g transform="translate(0.000000,512.000000) scale(0.100000,-0.100000)"
fill="#e9a178" stroke="none">
<path d="M1790 4570 c-214 -40 -374 -215 -448 -489 -23 -85 -26 -116 -26 -271
-1 -141 3 -190 18 -250 116 -458 488 -663 790 -436 292 220 380 745 190 1132
-72 147 -178 249 -306 293 -66 23 -158 32 -218 21z"/>
<path d="M3180 4569 c-149 -25 -291 -143 -372 -309 -212 -430 -80 -1016 266
-1185 291 -142 607 73 712 485 15 61 19 109 18 250 -1 154 -4 186 -26 271 -91
340 -328 533 -598 488z"/>
<path d="M557 3529 c-130 -30 -226 -131 -284 -296 -26 -73 -28 -88 -28 -248 1
-143 4 -183 22 -252 69 -259 195 -444 358 -524 64 -31 77 -34 165 -34 83 0
102 3 151 28 66 32 147 113 182 183 122 243 81 648 -91 900 -52 78 -155 175
-217 206 -85 43 -177 56 -258 37z"/>
<path d="M4395 3527 c-80 -21 -149 -64 -223 -141 -160 -166 -243 -390 -244
-661 -1 -148 20 -246 74 -347 106 -199 340 -263 537 -145 152 91 286 321 331
567 16 88 14 273 -4 361 -32 155 -129 294 -240 345 -65 30 -161 39 -231 21z"/>
<path d="M2360 2681 c-135 -30 -267 -89 -369 -167 -57 -44 -813 -757 -903
-853 -114 -120 -168 -260 -168 -432 0 -328 216 -611 516 -674 147 -31 309 -14
586 61 274 74 332 84 488 91 185 7 306 -10 591 -81 347 -87 448 -100 582 -71
297 63 517 348 517 670 0 174 -55 316 -168 436 -97 104 -850 813 -912 859 -75
57 -218 125 -315 151 -116 31 -329 36 -445 10z"/>
</g>
</svg>
