<?xml version="1.0" standalone="no"?>
<!DOCTYPE svg PUBLIC "-//W3C//DTD SVG 20010904//EN"
 "http://www.w3.org/TR/2001/REC-SVG-20010904/DTD/svg10.dtd">
<svg
        version="1.0"
        xmlns="http://www.w3.org/2000/svg"
        width="512.000000pt"
        height="512.000000pt"
        viewBox="0 0 512.000000 512.000000"
        preserveAspectRatio="xMidYMid meet"
      >
        <metadata>
          Created by potrace 1.16, written by Peter Selinger 2001-2019
        </metadata>
        <g
          transform="translate(0.000000,512.000000) scale(0.100000,-0.100000)"
          fill="#000000"
          stroke="none"
        >
          <path
            d="M590 5111 c-94 -29 -196 -125 -225 -210 -21 -64 -33 -183 -41 -411
-11 -305 22 -657 86 -917 l29 -118 -50 -86 c-135 -236 -252 -572 -318 -912
-52 -265 -65 -401 -66 -647 0 -208 2 -231 23 -300 33 -106 76 -201 139 -308
205 -351 560 -673 972 -881 309 -156 584 -241 966 -298 173 -26 737 -26 910 0
381 57 661 143 964 297 543 275 970 732 1113 1190 21 70 23 91 23 300 -1 246
-15 384 -66 647 -66 340 -183 676 -318 912 l-50 86 29 115 c70 289 101 667 82
1015 -16 294 -29 340 -116 433 -64 68 -125 95 -227 100 -76 4 -101 0 -200 -28
-407 -118 -789 -318 -1033 -541 l-54 -49 -123 20 c-208 34 -452 46 -657 32
-98 -7 -234 -21 -301 -32 l-123 -20 -53 48 c-242 222 -616 418 -1019 537 -121
35 -232 45 -296 26z m164 -206 c246 -62 551 -192 759 -322 68 -42 220 -158
252 -193 l30 -32 -54 -49 c-58 -52 -192 -127 -250 -140 -22 -5 -54 -4 -79 3
-38 9 -70 37 -240 207 -277 277 -357 326 -533 325 l-96 0 5 51 c6 74 31 116
82 143 53 26 47 26 124 7z m3736 -7 c51 -27 76 -69 82 -143 l5 -51 -96 0
c-176 1 -256 -48 -533 -325 -252 -251 -256 -252 -441 -157 -42 22 -101 62
-129 89 l-52 49 30 31 c32 34 184 151 251 192 205 128 500 254 753 321 75 19
80 19 130 -6z m-3730 -426 c41 -20 108 -79 265 -233 116 -113 224 -215 240
-226 52 -36 140 -56 223 -51 65 5 87 12 185 61 126 62 209 126 275 207 25 30
50 58 57 62 6 4 76 17 156 29 207 33 590 33 796 1 78 -12 149 -25 158 -28 8
-3 31 -29 52 -56 57 -78 156 -154 283 -216 l115 -57 100 0 c148 0 166 11 421
263 212 210 276 259 361 277 41 8 93 -8 123 -40 23 -24 23 -26 17 -222 -7
-200 -23 -354 -53 -514 l-17 -87 -71 60 c-79 67 -125 91 -159 83 -34 -9 -67
-41 -76 -72 -14 -50 4 -86 72 -141 35 -28 97 -86 138 -129 261 -274 488 -1038
492 -1653 1 -145 0 -160 -27 -240 -127 -382 -498 -777 -961 -1025 -581 -312
-1345 -404 -2055 -249 -147 32 -374 108 -518 172 -529 236 -978 678 -1118
1102 -25 78 -28 97 -27 225 3 506 153 1116 367 1493 61 108 146 207 255 296
82 67 100 104 78 158 -10 23 -27 41 -51 52 -50 24 -83 11 -171 -64 -38 -33
-73 -60 -76 -60 -9 0 -38 157 -55 300 -8 63 -17 199 -21 303 -6 187 -6 187 17
212 48 51 116 53 210 7z"
          />
          <path
            d="M1262 2785 c-51 -22 -65 -55 -60 -135 9 -125 89 -240 208 -298 49
-24 66 -27 160 -27 101 0 108 1 168 34 114 62 188 174 199 301 3 44 0 62 -16
87 -21 34 -67 53 -108 45 -34 -6 -72 -50 -78 -91 -14 -80 -18 -93 -41 -120
-34 -41 -98 -64 -152 -56 -79 12 -142 90 -142 177 0 60 -79 107 -138 83z"
          />
          <path
            d="M3263 2785 c-45 -19 -63 -51 -63 -112 0 -152 120 -298 280 -339 211
-54 430 98 456 317 10 87 -26 139 -97 141 -60 2 -109 -51 -109 -117 0 -42 -38
-100 -82 -125 -49 -28 -133 -24 -176 6 -34 26 -72 99 -72 141 0 65 -76 114
-137 88z"
          />
          <path
            d="M2435 2206 c-182 -35 -309 -123 -367 -253 -32 -71 -23 -178 22 -263
63 -120 206 -238 334 -275 40 -12 41 -14 44 -59 3 -44 2 -46 -25 -46 -59 0
-202 -42 -290 -86 -67 -33 -115 -66 -170 -117 -159 -149 -196 -264 -101 -313
59 -30 106 -7 157 78 55 91 199 186 341 224 88 23 280 23 374 1 144 -36 287
-134 355 -244 50 -81 111 -95 167 -39 42 42 44 74 5 141 -100 175 -334 323
-554 350 l-57 7 0 47 0 46 58 17 c126 37 257 151 320 277 32 65 37 84 37 145
0 57 -5 82 -28 127 -49 101 -165 186 -303 223 -84 23 -234 28 -319 12z"
          />
        </g>
      </svg>